<mxfile host="app.diagrams.net" agent="Mozilla/5.0 (Macintosh; Intel Mac OS X 10_15_7) AppleWebKit/537.36 (KHTML, like Gecko) Chrome/134.0.0.0 Safari/537.36 Edg/134.0.0.0" version="26.1.1">
  <diagram name="Σελίδα-1" id="37kj7ruwc1lNBJ_ZtgJI">
    <mxGraphModel dx="3681" dy="949" grid="0" gridSize="10" guides="1" tooltips="1" connect="1" arrows="1" fold="1" page="0" pageScale="1" pageWidth="827" pageHeight="1169" math="0" shadow="0">
      <root>
        <mxCell id="0" />
        <mxCell id="1" parent="0" />
        <mxCell id="uwge-FKVhBbenf3adf19-28" value="" style="rounded=0;whiteSpace=wrap;html=1;fillColor=none;strokeWidth=2;strokeColor=#000000;shadow=1;" vertex="1" parent="1">
          <mxGeometry x="-270" y="440" width="820" height="1100" as="geometry" />
        </mxCell>
        <mxCell id="uwge-FKVhBbenf3adf19-68" style="edgeStyle=orthogonalEdgeStyle;rounded=0;orthogonalLoop=1;jettySize=auto;html=1;strokeColor=#FF00FF;strokeWidth=2;" edge="1" parent="1" source="uwge-FKVhBbenf3adf19-4" target="uwge-FKVhBbenf3adf19-5">
          <mxGeometry relative="1" as="geometry" />
        </mxCell>
        <mxCell id="uwge-FKVhBbenf3adf19-69" value="&lt;font style=&quot;color: rgb(255, 0, 255);&quot;&gt;&amp;lt;&amp;lt; includes &amp;gt;&amp;gt;&lt;/font&gt;" style="edgeLabel;html=1;align=center;verticalAlign=middle;resizable=0;points=[];fontStyle=1" vertex="1" connectable="0" parent="uwge-FKVhBbenf3adf19-68">
          <mxGeometry x="0.2179" y="-2" relative="1" as="geometry">
            <mxPoint x="2" y="5" as="offset" />
          </mxGeometry>
        </mxCell>
        <mxCell id="uwge-FKVhBbenf3adf19-4" value="&lt;span style=&quot;text-align: left;&quot;&gt;Δημιουργία Αγγελίας Κατοικίας&amp;nbsp;&lt;/span&gt;" style="ellipse;whiteSpace=wrap;html=1;fontStyle=1;fillColor=#f5f5f5;fontColor=#333333;strokeColor=#666666;" vertex="1" parent="1">
          <mxGeometry x="-87.5" y="610" width="160" height="60" as="geometry" />
        </mxCell>
        <mxCell id="uwge-FKVhBbenf3adf19-5" value="&lt;span style=&quot;text-align: left;&quot;&gt;Τοποθεσία Ακινήτου&amp;nbsp;&lt;/span&gt;" style="ellipse;whiteSpace=wrap;html=1;fontStyle=1;fillColor=#f5f5f5;fontColor=#333333;strokeColor=#666666;" vertex="1" parent="1">
          <mxGeometry x="-95" y="810" width="175" height="40" as="geometry" />
        </mxCell>
        <mxCell id="uwge-FKVhBbenf3adf19-6" value="&lt;span style=&quot;text-align: left;&quot;&gt;Εύρεση Κατοικίας&amp;nbsp;&lt;/span&gt;" style="ellipse;whiteSpace=wrap;html=1;fontStyle=1;fillColor=#f5f5f5;fontColor=#333333;strokeColor=#666666;" vertex="1" parent="1">
          <mxGeometry x="-60" y="1190" width="162.5" height="40" as="geometry" />
        </mxCell>
        <mxCell id="uwge-FKVhBbenf3adf19-7" value="&lt;span style=&quot;text-align: left;&quot;&gt;Αξιολόγηση Εμπειρίας&amp;nbsp;&lt;/span&gt;" style="ellipse;whiteSpace=wrap;html=1;fontStyle=1;fillColor=#f5f5f5;fontColor=#333333;strokeColor=#666666;" vertex="1" parent="1">
          <mxGeometry x="-105" y="980" width="165" height="40" as="geometry" />
        </mxCell>
        <mxCell id="uwge-FKVhBbenf3adf19-86" style="edgeStyle=orthogonalEdgeStyle;rounded=0;orthogonalLoop=1;jettySize=auto;html=1;entryX=1;entryY=0.5;entryDx=0;entryDy=0;strokeColor=#6666FF;strokeWidth=2;" edge="1" parent="1" source="uwge-FKVhBbenf3adf19-8" target="uwge-FKVhBbenf3adf19-7">
          <mxGeometry relative="1" as="geometry">
            <Array as="points">
              <mxPoint x="290" y="1000" />
            </Array>
          </mxGeometry>
        </mxCell>
        <mxCell id="uwge-FKVhBbenf3adf19-87" value="&lt;span style=&quot;font-weight: 700;&quot;&gt;&lt;font style=&quot;font-size: 9px; color: rgb(102, 102, 255);&quot;&gt;&amp;lt;&amp;lt; extends &amp;gt;&amp;gt;&amp;nbsp;&lt;/font&gt;&lt;/span&gt;&lt;div&gt;&lt;span style=&quot;font-weight: 700;&quot;&gt;&lt;font style=&quot;font-size: 9px; color: rgb(102, 102, 255);&quot;&gt;&amp;nbsp; (αν έχουμε αποτυχία&amp;nbsp;&amp;nbsp;&lt;/font&gt;&lt;/span&gt;&lt;/div&gt;&lt;div&gt;&lt;span style=&quot;font-weight: 700;&quot;&gt;&lt;font style=&quot;font-size: 9px; color: rgb(102, 102, 255);&quot;&gt;&amp;nbsp;ταυτοποίησης)&lt;/font&gt;&lt;/span&gt;&lt;/div&gt;" style="edgeLabel;html=1;align=center;verticalAlign=middle;resizable=0;points=[];" vertex="1" connectable="0" parent="uwge-FKVhBbenf3adf19-86">
          <mxGeometry x="0.1442" y="-3" relative="1" as="geometry">
            <mxPoint x="-7" y="3" as="offset" />
          </mxGeometry>
        </mxCell>
        <mxCell id="uwge-FKVhBbenf3adf19-8" value="&lt;span style=&quot;text-align: left;&quot;&gt;Πιστοποίηση και Αξιολόγηση Λογαριασμού&lt;/span&gt;" style="ellipse;whiteSpace=wrap;html=1;fontStyle=1;fillColor=#f5f5f5;fontColor=#333333;strokeColor=#666666;" vertex="1" parent="1">
          <mxGeometry x="180" y="930" width="220" height="50" as="geometry" />
        </mxCell>
        <mxCell id="uwge-FKVhBbenf3adf19-9" value="&lt;span style=&quot;text-align: left;&quot;&gt;Δήλωση Ενδιαφέροντος Κατοικίας&amp;nbsp;&lt;/span&gt;" style="ellipse;whiteSpace=wrap;html=1;fontStyle=1;fillColor=#f5f5f5;fontColor=#333333;strokeColor=#666666;" vertex="1" parent="1">
          <mxGeometry x="-70" y="1350" width="180" height="50" as="geometry" />
        </mxCell>
        <mxCell id="uwge-FKVhBbenf3adf19-89" style="edgeStyle=orthogonalEdgeStyle;rounded=0;orthogonalLoop=1;jettySize=auto;html=1;entryX=1;entryY=0.5;entryDx=0;entryDy=0;strokeColor=#FF00FF;strokeWidth=2;" edge="1" parent="1" source="uwge-FKVhBbenf3adf19-10" target="uwge-FKVhBbenf3adf19-19">
          <mxGeometry relative="1" as="geometry">
            <Array as="points">
              <mxPoint x="340" y="1300" />
              <mxPoint x="470" y="1300" />
              <mxPoint x="470" y="560" />
            </Array>
          </mxGeometry>
        </mxCell>
        <mxCell id="uwge-FKVhBbenf3adf19-90" value="&lt;b&gt;&lt;font style=&quot;color: rgb(255, 0, 255);&quot;&gt;&amp;lt;&amp;lt; includes &amp;gt;&amp;gt;&lt;/font&gt;&lt;/b&gt;" style="edgeLabel;html=1;align=center;verticalAlign=middle;resizable=0;points=[];" vertex="1" connectable="0" parent="uwge-FKVhBbenf3adf19-89">
          <mxGeometry x="0.6873" relative="1" as="geometry">
            <mxPoint y="-13" as="offset" />
          </mxGeometry>
        </mxCell>
        <mxCell id="uwge-FKVhBbenf3adf19-10" value="&lt;span style=&quot;text-align: left;&quot;&gt;Πληρωμή Ενοικίου&amp;nbsp;&lt;/span&gt;" style="ellipse;whiteSpace=wrap;html=1;fontStyle=1;fillColor=#f5f5f5;fontColor=#333333;strokeColor=#666666;" vertex="1" parent="1">
          <mxGeometry x="210" y="1310" width="150" height="40" as="geometry" />
        </mxCell>
        <mxCell id="uwge-FKVhBbenf3adf19-12" value="&lt;span style=&quot;text-align: left;&quot;&gt;Προσθήκη Τρόπου Πληρωμής&amp;nbsp;&lt;/span&gt;" style="ellipse;whiteSpace=wrap;html=1;fontStyle=1;fillColor=#f5f5f5;fontColor=#333333;strokeColor=#666666;" vertex="1" parent="1">
          <mxGeometry x="210" y="1190" width="170" height="40" as="geometry" />
        </mxCell>
        <mxCell id="uwge-FKVhBbenf3adf19-81" style="edgeStyle=orthogonalEdgeStyle;rounded=0;orthogonalLoop=1;jettySize=auto;html=1;entryX=0;entryY=0.5;entryDx=0;entryDy=0;strokeColor=#6666FF;exitX=0.5;exitY=0;exitDx=0;exitDy=0;strokeWidth=2;" edge="1" parent="1" source="uwge-FKVhBbenf3adf19-13" target="uwge-FKVhBbenf3adf19-10">
          <mxGeometry relative="1" as="geometry">
            <mxPoint x="20" y="1089.9999999999998" as="sourcePoint" />
            <mxPoint x="210" y="1309.9999999999998" as="targetPoint" />
            <Array as="points">
              <mxPoint x="20" y="1090" />
              <mxPoint x="140" y="1090" />
              <mxPoint x="140" y="1330" />
            </Array>
          </mxGeometry>
        </mxCell>
        <mxCell id="uwge-FKVhBbenf3adf19-82" value="&lt;span style=&quot;font-weight: 700;&quot;&gt;&lt;font style=&quot;font-size: 9px; color: rgb(102, 102, 255);&quot;&gt;&amp;lt;&amp;lt; extends &amp;gt;&amp;gt;&amp;nbsp;&lt;/font&gt;&lt;/span&gt;&lt;div style=&quot;font-weight: 700;&quot;&gt;&lt;font style=&quot;font-size: 9px; color: rgb(102, 102, 255);&quot;&gt;(αν δεν επαρκεί το υπόλοιπο)&lt;/font&gt;&lt;/div&gt;" style="edgeLabel;html=1;align=center;verticalAlign=middle;resizable=0;points=[];" vertex="1" connectable="0" parent="uwge-FKVhBbenf3adf19-81">
          <mxGeometry x="0.7203" relative="1" as="geometry">
            <mxPoint x="-7" y="-80" as="offset" />
          </mxGeometry>
        </mxCell>
        <mxCell id="uwge-FKVhBbenf3adf19-13" value="&lt;span style=&quot;text-align: left;&quot;&gt;Ανανέωση Υπολοίπου&amp;nbsp;&lt;/span&gt;" style="ellipse;whiteSpace=wrap;html=1;fontStyle=1;fillColor=#f5f5f5;fontColor=#333333;strokeColor=#666666;" vertex="1" parent="1">
          <mxGeometry x="-65" y="1110" width="170" height="40" as="geometry" />
        </mxCell>
        <mxCell id="uwge-FKVhBbenf3adf19-77" style="edgeStyle=orthogonalEdgeStyle;rounded=0;orthogonalLoop=1;jettySize=auto;html=1;strokeColor=#FF00FF;strokeWidth=2;" edge="1" parent="1" source="uwge-FKVhBbenf3adf19-15" target="uwge-FKVhBbenf3adf19-9">
          <mxGeometry relative="1" as="geometry">
            <Array as="points">
              <mxPoint x="1" y="470" />
              <mxPoint x="-230" y="470" />
              <mxPoint x="-230" y="1440" />
              <mxPoint x="50" y="1440" />
            </Array>
          </mxGeometry>
        </mxCell>
        <mxCell id="uwge-FKVhBbenf3adf19-78" value="&lt;font style=&quot;color: rgb(255, 0, 255);&quot;&gt;&amp;lt;&amp;lt; includes &amp;gt;&amp;gt;&lt;/font&gt;" style="edgeLabel;html=1;align=center;verticalAlign=middle;resizable=0;points=[];fontStyle=1" vertex="1" connectable="0" parent="uwge-FKVhBbenf3adf19-77">
          <mxGeometry x="0.7661" y="-1" relative="1" as="geometry">
            <mxPoint x="20" y="-1" as="offset" />
          </mxGeometry>
        </mxCell>
        <mxCell id="uwge-FKVhBbenf3adf19-91" style="edgeStyle=orthogonalEdgeStyle;rounded=0;orthogonalLoop=1;jettySize=auto;html=1;entryX=0;entryY=0;entryDx=0;entryDy=0;strokeColor=#FF00FF;strokeWidth=2;" edge="1" parent="1" source="uwge-FKVhBbenf3adf19-15" target="uwge-FKVhBbenf3adf19-8">
          <mxGeometry relative="1" as="geometry">
            <Array as="points">
              <mxPoint x="170" y="510" />
              <mxPoint x="170" y="920" />
              <mxPoint x="212" y="920" />
            </Array>
          </mxGeometry>
        </mxCell>
        <mxCell id="uwge-FKVhBbenf3adf19-92" value="&lt;span style=&quot;color: rgb(255, 0, 255); font-weight: 700;&quot;&gt;&amp;lt;&amp;lt; includes &amp;gt;&amp;gt;&lt;/span&gt;" style="edgeLabel;html=1;align=center;verticalAlign=middle;resizable=0;points=[];" vertex="1" connectable="0" parent="uwge-FKVhBbenf3adf19-91">
          <mxGeometry x="-0.3868" y="-1" relative="1" as="geometry">
            <mxPoint as="offset" />
          </mxGeometry>
        </mxCell>
        <mxCell id="uwge-FKVhBbenf3adf19-15" value="&lt;span style=&quot;text-align: left;&quot;&gt;Έναρξη Διαδικασίας Ενοικίασης&amp;nbsp;&lt;/span&gt;" style="ellipse;whiteSpace=wrap;html=1;fontStyle=1;fillColor=#f5f5f5;fontColor=#333333;strokeColor=#666666;" vertex="1" parent="1">
          <mxGeometry x="-87.5" y="490" width="177.5" height="40" as="geometry" />
        </mxCell>
        <mxCell id="uwge-FKVhBbenf3adf19-16" value="&lt;span style=&quot;text-align: left;&quot;&gt;Αποδοχή Αίτησης Ενοικίασης&amp;nbsp;&lt;/span&gt;" style="ellipse;whiteSpace=wrap;html=1;fontStyle=1;fillColor=#f5f5f5;fontColor=#333333;strokeColor=#666666;" vertex="1" parent="1">
          <mxGeometry x="190" y="660" width="160" height="50" as="geometry" />
        </mxCell>
        <mxCell id="uwge-FKVhBbenf3adf19-17" value="&lt;span style=&quot;text-align: left;&quot;&gt;Οριστικοποίηση Ενοικίασης&amp;nbsp;&lt;/span&gt;" style="ellipse;whiteSpace=wrap;html=1;fontStyle=1;fillColor=#f5f5f5;fontColor=#333333;strokeColor=#666666;" vertex="1" parent="1">
          <mxGeometry x="210" y="800" width="160" height="50" as="geometry" />
        </mxCell>
        <mxCell id="uwge-FKVhBbenf3adf19-18" value="&lt;span style=&quot;text-align: left;&quot;&gt;Chat Επικοινωνίας&amp;nbsp;&lt;/span&gt;" style="ellipse;whiteSpace=wrap;html=1;fontStyle=1;fillColor=#f5f5f5;fontColor=#333333;strokeColor=#666666;" vertex="1" parent="1">
          <mxGeometry x="220" y="1020" width="140" height="40" as="geometry" />
        </mxCell>
        <mxCell id="uwge-FKVhBbenf3adf19-19" value="&lt;span style=&quot;text-align: left;&quot;&gt;Λήξη Ενοικίασης&amp;nbsp;&lt;/span&gt;" style="ellipse;whiteSpace=wrap;html=1;fontStyle=1;fillColor=#f5f5f5;fontColor=#333333;strokeColor=#666666;" vertex="1" parent="1">
          <mxGeometry x="250" y="540" width="130" height="40" as="geometry" />
        </mxCell>
        <mxCell id="uwge-FKVhBbenf3adf19-35" style="edgeStyle=orthogonalEdgeStyle;rounded=0;orthogonalLoop=1;jettySize=auto;html=1;" edge="1" parent="1">
          <mxGeometry relative="1" as="geometry">
            <mxPoint x="-395" y="1010" as="targetPoint" />
            <mxPoint x="-395" y="800" as="sourcePoint" />
          </mxGeometry>
        </mxCell>
        <mxCell id="uwge-FKVhBbenf3adf19-20" value="Ιδιοκτήτης" style="shape=umlActor;verticalLabelPosition=bottom;verticalAlign=top;html=1;outlineConnect=0;fillColor=#dae8fc;strokeColor=#6c8ebf;fontStyle=1" vertex="1" parent="1">
          <mxGeometry x="-410" y="710" width="30" height="60" as="geometry" />
        </mxCell>
        <mxCell id="uwge-FKVhBbenf3adf19-22" value="Τραπεζικός&amp;nbsp;&lt;div&gt;Πάροχος&lt;/div&gt;" style="shape=umlActor;verticalLabelPosition=bottom;verticalAlign=top;html=1;outlineConnect=0;fillColor=#dae8fc;strokeColor=#6c8ebf;fontStyle=1" vertex="1" parent="1">
          <mxGeometry x="640" y="1130" width="30" height="60" as="geometry" />
        </mxCell>
        <mxCell id="uwge-FKVhBbenf3adf19-23" value="Υπηρεσία Email" style="shape=umlActor;verticalLabelPosition=bottom;verticalAlign=top;html=1;outlineConnect=0;fillColor=#dae8fc;strokeColor=#6c8ebf;fontStyle=1" vertex="1" parent="1">
          <mxGeometry x="640" y="960" width="30" height="60" as="geometry" />
        </mxCell>
        <mxCell id="uwge-FKVhBbenf3adf19-24" value="Χρήστης" style="shape=umlActor;verticalLabelPosition=bottom;verticalAlign=top;html=1;outlineConnect=0;fillColor=#dae8fc;strokeColor=#6c8ebf;fontStyle=1" vertex="1" parent="1">
          <mxGeometry x="-410" y="1020" width="30" height="60" as="geometry" />
        </mxCell>
        <mxCell id="uwge-FKVhBbenf3adf19-67" style="edgeStyle=orthogonalEdgeStyle;rounded=0;orthogonalLoop=1;jettySize=auto;html=1;" edge="1" parent="1">
          <mxGeometry relative="1" as="geometry">
            <mxPoint x="-395" y="1110" as="targetPoint" />
            <mxPoint x="-395" y="1300" as="sourcePoint" />
          </mxGeometry>
        </mxCell>
        <mxCell id="uwge-FKVhBbenf3adf19-25" value="Ενοικιαστής" style="shape=umlActor;verticalLabelPosition=bottom;verticalAlign=top;html=1;outlineConnect=0;fillColor=#dae8fc;strokeColor=#6c8ebf;fontStyle=1" vertex="1" parent="1">
          <mxGeometry x="-410" y="1320" width="30" height="60" as="geometry" />
        </mxCell>
        <mxCell id="uwge-FKVhBbenf3adf19-26" value="Υπηρεσία&lt;div&gt;Χαρτών&lt;/div&gt;" style="shape=umlActor;verticalLabelPosition=bottom;verticalAlign=top;html=1;outlineConnect=0;fillColor=#dae8fc;strokeColor=#6c8ebf;fontStyle=1" vertex="1" parent="1">
          <mxGeometry x="640" y="580" width="30" height="60" as="geometry" />
        </mxCell>
        <mxCell id="uwge-FKVhBbenf3adf19-27" value="Υπηρεσία&lt;div&gt;Ταυτοποίησης&lt;/div&gt;" style="shape=umlActor;verticalLabelPosition=bottom;verticalAlign=top;html=1;outlineConnect=0;fillColor=#dae8fc;strokeColor=#6c8ebf;fontStyle=1" vertex="1" parent="1">
          <mxGeometry x="640" y="770" width="30" height="60" as="geometry" />
        </mxCell>
        <mxCell id="uwge-FKVhBbenf3adf19-38" value="" style="endArrow=none;html=1;rounded=0;entryX=0;entryY=0.5;entryDx=0;entryDy=0;" edge="1" parent="1" target="uwge-FKVhBbenf3adf19-4">
          <mxGeometry width="50" height="50" relative="1" as="geometry">
            <mxPoint x="-360" y="750" as="sourcePoint" />
            <mxPoint x="10" y="860" as="targetPoint" />
            <Array as="points">
              <mxPoint x="-150" y="750" />
              <mxPoint x="-150" y="640" />
            </Array>
          </mxGeometry>
        </mxCell>
        <mxCell id="uwge-FKVhBbenf3adf19-40" value="" style="endArrow=none;html=1;rounded=0;entryX=0;entryY=0.5;entryDx=0;entryDy=0;" edge="1" parent="1" target="uwge-FKVhBbenf3adf19-5">
          <mxGeometry width="50" height="50" relative="1" as="geometry">
            <mxPoint x="-360" y="770" as="sourcePoint" />
            <mxPoint x="30" y="850" as="targetPoint" />
            <Array as="points">
              <mxPoint x="-150" y="770" />
              <mxPoint x="-150" y="830" />
            </Array>
          </mxGeometry>
        </mxCell>
        <mxCell id="uwge-FKVhBbenf3adf19-42" value="" style="endArrow=none;html=1;rounded=0;entryX=0;entryY=0.5;entryDx=0;entryDy=0;" edge="1" parent="1" target="uwge-FKVhBbenf3adf19-6">
          <mxGeometry width="50" height="50" relative="1" as="geometry">
            <mxPoint x="-320" y="1350" as="sourcePoint" />
            <mxPoint x="240" y="1230" as="targetPoint" />
            <Array as="points">
              <mxPoint x="-200" y="1350" />
              <mxPoint x="-200" y="1210" />
            </Array>
          </mxGeometry>
        </mxCell>
        <mxCell id="uwge-FKVhBbenf3adf19-43" value="" style="endArrow=none;html=1;rounded=0;entryX=0.5;entryY=1;entryDx=0;entryDy=0;" edge="1" parent="1" target="uwge-FKVhBbenf3adf19-12">
          <mxGeometry width="50" height="50" relative="1" as="geometry">
            <mxPoint x="-320" y="1370" as="sourcePoint" />
            <mxPoint x="-57.5" y="1230" as="targetPoint" />
            <Array as="points">
              <mxPoint x="-140" y="1370" />
              <mxPoint x="-140" y="1280" />
              <mxPoint x="295" y="1280" />
            </Array>
          </mxGeometry>
        </mxCell>
        <mxCell id="uwge-FKVhBbenf3adf19-44" value="" style="endArrow=none;html=1;rounded=0;entryX=0.5;entryY=1;entryDx=0;entryDy=0;" edge="1" parent="1" target="uwge-FKVhBbenf3adf19-9">
          <mxGeometry width="50" height="50" relative="1" as="geometry">
            <mxPoint x="-320" y="1390" as="sourcePoint" />
            <mxPoint x="170" y="1270" as="targetPoint" />
            <Array as="points">
              <mxPoint x="-150" y="1390" />
              <mxPoint x="-150" y="1460" />
              <mxPoint x="20" y="1460" />
            </Array>
          </mxGeometry>
        </mxCell>
        <mxCell id="uwge-FKVhBbenf3adf19-46" value="" style="endArrow=none;html=1;rounded=0;entryX=0;entryY=0.5;entryDx=0;entryDy=0;" edge="1" parent="1" target="uwge-FKVhBbenf3adf19-16">
          <mxGeometry width="50" height="50" relative="1" as="geometry">
            <mxPoint x="-360" y="720" as="sourcePoint" />
            <mxPoint x="190" y="950" as="targetPoint" />
            <Array as="points">
              <mxPoint x="140" y="720" />
              <mxPoint x="140" y="685" />
            </Array>
          </mxGeometry>
        </mxCell>
        <mxCell id="uwge-FKVhBbenf3adf19-47" value="" style="endArrow=none;html=1;rounded=0;entryX=0;entryY=0.5;entryDx=0;entryDy=0;" edge="1" parent="1" target="uwge-FKVhBbenf3adf19-17">
          <mxGeometry width="50" height="50" relative="1" as="geometry">
            <mxPoint x="-360" y="805" as="sourcePoint" />
            <mxPoint x="200" y="770" as="targetPoint" />
            <Array as="points">
              <mxPoint x="-190" y="805" />
              <mxPoint x="-190" y="880" />
              <mxPoint x="160" y="880" />
              <mxPoint x="160" y="825" />
            </Array>
          </mxGeometry>
        </mxCell>
        <mxCell id="uwge-FKVhBbenf3adf19-48" value="" style="endArrow=none;html=1;rounded=0;entryX=0;entryY=0.5;entryDx=0;entryDy=0;" edge="1" parent="1" target="uwge-FKVhBbenf3adf19-13">
          <mxGeometry width="50" height="50" relative="1" as="geometry">
            <mxPoint x="-330" y="1330" as="sourcePoint" />
            <mxPoint x="150" y="1000" as="targetPoint" />
            <Array as="points">
              <mxPoint x="-330" y="1130" />
              <mxPoint x="-190" y="1130" />
            </Array>
          </mxGeometry>
        </mxCell>
        <mxCell id="uwge-FKVhBbenf3adf19-50" value="" style="endArrow=none;html=1;rounded=0;entryX=0;entryY=0.5;entryDx=0;entryDy=0;" edge="1" parent="1" target="uwge-FKVhBbenf3adf19-8">
          <mxGeometry width="50" height="50" relative="1" as="geometry">
            <mxPoint x="-350" y="1020" as="sourcePoint" />
            <mxPoint x="-20" y="970" as="targetPoint" />
            <Array as="points">
              <mxPoint x="-350" y="955" />
              <mxPoint x="-240" y="955" />
            </Array>
          </mxGeometry>
        </mxCell>
        <mxCell id="uwge-FKVhBbenf3adf19-52" value="" style="endArrow=none;html=1;rounded=0;entryX=0;entryY=0.5;entryDx=0;entryDy=0;" edge="1" parent="1" target="uwge-FKVhBbenf3adf19-7">
          <mxGeometry width="50" height="50" relative="1" as="geometry">
            <mxPoint x="-350" y="1030" as="sourcePoint" />
            <mxPoint x="120" y="970" as="targetPoint" />
            <Array as="points">
              <mxPoint x="-210" y="1030" />
              <mxPoint x="-210" y="1000" />
            </Array>
          </mxGeometry>
        </mxCell>
        <mxCell id="uwge-FKVhBbenf3adf19-53" value="" style="endArrow=none;html=1;rounded=0;entryX=0;entryY=0.5;entryDx=0;entryDy=0;" edge="1" parent="1" target="uwge-FKVhBbenf3adf19-18">
          <mxGeometry width="50" height="50" relative="1" as="geometry">
            <mxPoint x="-350" y="1040" as="sourcePoint" />
            <mxPoint x="120" y="1010" as="targetPoint" />
          </mxGeometry>
        </mxCell>
        <mxCell id="uwge-FKVhBbenf3adf19-54" value="" style="endArrow=none;html=1;rounded=0;entryX=0;entryY=0.5;entryDx=0;entryDy=0;" edge="1" parent="1" target="uwge-FKVhBbenf3adf19-15">
          <mxGeometry width="50" height="50" relative="1" as="geometry">
            <mxPoint x="-400" y="690" as="sourcePoint" />
            <mxPoint x="190" y="850" as="targetPoint" />
            <Array as="points">
              <mxPoint x="-400" y="510" />
            </Array>
          </mxGeometry>
        </mxCell>
        <mxCell id="uwge-FKVhBbenf3adf19-55" value="" style="endArrow=none;html=1;rounded=0;entryX=0;entryY=1;entryDx=0;entryDy=0;" edge="1" parent="1" target="uwge-FKVhBbenf3adf19-19">
          <mxGeometry width="50" height="50" relative="1" as="geometry">
            <mxPoint x="-360" y="700" as="sourcePoint" />
            <mxPoint x="190" y="850" as="targetPoint" />
            <Array as="points">
              <mxPoint x="-200" y="700" />
              <mxPoint x="-200" y="574" />
              <mxPoint x="20" y="574" />
            </Array>
          </mxGeometry>
        </mxCell>
        <mxCell id="uwge-FKVhBbenf3adf19-58" value="" style="endArrow=none;html=1;rounded=0;entryX=0.5;entryY=1;entryDx=0;entryDy=0;" edge="1" parent="1" target="uwge-FKVhBbenf3adf19-10">
          <mxGeometry width="50" height="50" relative="1" as="geometry">
            <mxPoint x="-390" y="1420" as="sourcePoint" />
            <mxPoint x="270" y="1200" as="targetPoint" />
            <Array as="points">
              <mxPoint x="-390" y="1500" />
              <mxPoint x="-40" y="1500" />
              <mxPoint x="285" y="1500" />
            </Array>
          </mxGeometry>
        </mxCell>
        <mxCell id="uwge-FKVhBbenf3adf19-60" value="" style="endArrow=none;html=1;rounded=0;exitX=1;exitY=0.5;exitDx=0;exitDy=0;" edge="1" parent="1" source="uwge-FKVhBbenf3adf19-13">
          <mxGeometry width="50" height="50" relative="1" as="geometry">
            <mxPoint x="130" y="1040" as="sourcePoint" />
            <mxPoint x="600" y="1170" as="targetPoint" />
            <Array as="points">
              <mxPoint x="480" y="1130" />
              <mxPoint x="600" y="1130" />
            </Array>
          </mxGeometry>
        </mxCell>
        <mxCell id="uwge-FKVhBbenf3adf19-61" value="" style="endArrow=none;html=1;rounded=0;exitX=1;exitY=0.5;exitDx=0;exitDy=0;" edge="1" parent="1" source="uwge-FKVhBbenf3adf19-12">
          <mxGeometry width="50" height="50" relative="1" as="geometry">
            <mxPoint x="170" y="1100" as="sourcePoint" />
            <mxPoint x="600" y="1210" as="targetPoint" />
          </mxGeometry>
        </mxCell>
        <mxCell id="uwge-FKVhBbenf3adf19-62" value="" style="endArrow=none;html=1;rounded=0;exitX=1;exitY=0.5;exitDx=0;exitDy=0;" edge="1" parent="1" source="uwge-FKVhBbenf3adf19-17">
          <mxGeometry width="50" height="50" relative="1" as="geometry">
            <mxPoint x="140" y="990" as="sourcePoint" />
            <mxPoint x="610" y="825" as="targetPoint" />
          </mxGeometry>
        </mxCell>
        <mxCell id="uwge-FKVhBbenf3adf19-63" value="" style="endArrow=none;html=1;rounded=0;exitX=1;exitY=0.5;exitDx=0;exitDy=0;" edge="1" parent="1" source="uwge-FKVhBbenf3adf19-4">
          <mxGeometry width="50" height="50" relative="1" as="geometry">
            <mxPoint x="140" y="990" as="sourcePoint" />
            <mxPoint x="620" y="640" as="targetPoint" />
          </mxGeometry>
        </mxCell>
        <mxCell id="uwge-FKVhBbenf3adf19-64" value="" style="endArrow=none;html=1;rounded=0;exitX=0.954;exitY=0.256;exitDx=0;exitDy=0;exitPerimeter=0;" edge="1" parent="1" source="uwge-FKVhBbenf3adf19-6">
          <mxGeometry width="50" height="50" relative="1" as="geometry">
            <mxPoint x="95" y="1202" as="sourcePoint" />
            <mxPoint x="620" y="660" as="targetPoint" />
            <Array as="points">
              <mxPoint x="95" y="1160" />
              <mxPoint x="430" y="1160" />
              <mxPoint x="430" y="660" />
            </Array>
          </mxGeometry>
        </mxCell>
        <mxCell id="uwge-FKVhBbenf3adf19-65" value="" style="endArrow=none;html=1;rounded=0;exitX=1;exitY=0.5;exitDx=0;exitDy=0;" edge="1" parent="1" source="uwge-FKVhBbenf3adf19-9">
          <mxGeometry width="50" height="50" relative="1" as="geometry">
            <mxPoint x="140" y="1080" as="sourcePoint" />
            <mxPoint x="720" y="1030" as="targetPoint" />
            <Array as="points">
              <mxPoint x="750" y="1375" />
              <mxPoint x="750" y="1030" />
            </Array>
          </mxGeometry>
        </mxCell>
        <mxCell id="uwge-FKVhBbenf3adf19-66" value="" style="endArrow=none;html=1;rounded=0;exitX=1;exitY=0.5;exitDx=0;exitDy=0;" edge="1" parent="1" source="uwge-FKVhBbenf3adf19-10">
          <mxGeometry width="50" height="50" relative="1" as="geometry">
            <mxPoint x="140" y="1080" as="sourcePoint" />
            <mxPoint x="650" y="1240" as="targetPoint" />
            <Array as="points">
              <mxPoint x="650" y="1330" />
            </Array>
          </mxGeometry>
        </mxCell>
        <mxCell id="uwge-FKVhBbenf3adf19-70" style="edgeStyle=orthogonalEdgeStyle;rounded=0;orthogonalLoop=1;jettySize=auto;html=1;entryX=0;entryY=0;entryDx=0;entryDy=0;strokeColor=#FF00FF;strokeWidth=2;" edge="1" parent="1">
          <mxGeometry relative="1" as="geometry">
            <mxPoint x="60" y="660" as="sourcePoint" />
            <mxPoint x="201.99825406947983" y="938.9823304703364" as="targetPoint" />
            <Array as="points">
              <mxPoint x="100" y="660" />
              <mxPoint x="100" y="939" />
            </Array>
          </mxGeometry>
        </mxCell>
        <mxCell id="uwge-FKVhBbenf3adf19-74" value="&lt;font style=&quot;color: rgb(255, 0, 255);&quot;&gt;&amp;lt;&amp;lt; includes &amp;gt;&amp;gt;&lt;/font&gt;" style="edgeLabel;html=1;align=center;verticalAlign=middle;resizable=0;points=[];fontStyle=1" vertex="1" connectable="0" parent="uwge-FKVhBbenf3adf19-70">
          <mxGeometry x="0.3647" y="-1" relative="1" as="geometry">
            <mxPoint as="offset" />
          </mxGeometry>
        </mxCell>
        <mxCell id="uwge-FKVhBbenf3adf19-75" style="edgeStyle=orthogonalEdgeStyle;rounded=0;orthogonalLoop=1;jettySize=auto;html=1;entryX=0.625;entryY=0.96;entryDx=0;entryDy=0;entryPerimeter=0;strokeWidth=2;strokeColor=#FF00FF;" edge="1" parent="1" source="uwge-FKVhBbenf3adf19-17" target="uwge-FKVhBbenf3adf19-16">
          <mxGeometry relative="1" as="geometry" />
        </mxCell>
        <mxCell id="uwge-FKVhBbenf3adf19-76" value="&lt;font style=&quot;color: rgb(255, 0, 255);&quot;&gt;&amp;lt;&amp;lt; includes &amp;gt;&amp;gt;&lt;/font&gt;" style="edgeLabel;html=1;align=center;verticalAlign=middle;resizable=0;points=[];fontStyle=1" vertex="1" connectable="0" parent="uwge-FKVhBbenf3adf19-75">
          <mxGeometry x="0.0725" y="-1" relative="1" as="geometry">
            <mxPoint as="offset" />
          </mxGeometry>
        </mxCell>
        <mxCell id="uwge-FKVhBbenf3adf19-83" style="edgeStyle=orthogonalEdgeStyle;rounded=0;orthogonalLoop=1;jettySize=auto;html=1;entryX=0.894;entryY=0.114;entryDx=0;entryDy=0;entryPerimeter=0;strokeColor=#6666FF;strokeWidth=2;" edge="1" parent="1" source="uwge-FKVhBbenf3adf19-12" target="uwge-FKVhBbenf3adf19-13">
          <mxGeometry relative="1" as="geometry">
            <Array as="points">
              <mxPoint x="295" y="1080" />
              <mxPoint x="87" y="1080" />
            </Array>
          </mxGeometry>
        </mxCell>
        <mxCell id="uwge-FKVhBbenf3adf19-84" value="&lt;span style=&quot;color: rgba(0, 0, 0, 0); font-family: monospace; font-size: 0px; text-align: start;&quot;&gt;%3CmxGraphModel%3E%3Croot%3E%3CmxCell%20id%3D%220%22%2F%3E%3CmxCell%20id%3D%221%22%20parent%3D%220%22%2F%3E%3CmxCell%20id%3D%222%22%20value%3D%22%26lt%3Bspan%20style%3D%26quot%3Bfont-weight%3A%20700%3B%26quot%3B%26gt%3B%26amp%3Blt%3B%26amp%3Blt%3B%20extends%20%26amp%3Bgt%3B%26amp%3Bgt%3B%26amp%3Bnbsp%3B%26lt%3B%2Fspan%26gt%3B%26lt%3Bdiv%20style%3D%26quot%3Bfont-weight%3A%20700%3B%26quot%3B%26gt%3B(%CE%B1%CE%BD%20%CE%B4%CE%B5%CE%BD%20%CE%B5%CF%80%CE%B1%CF%81%CE%BA%CE%B5%CE%AF%20%CF%84%CE%BF%20%CF%85%CF%80%CF%8C%CE%BB%CE%BF%CE%B9%CF%80%CE%BF)%26lt%3B%2Fdiv%26gt%3B%22%20style%3D%22edgeLabel%3Bhtml%3D1%3Balign%3Dcenter%3BverticalAlign%3Dmiddle%3Bresizable%3D0%3Bpoints%3D%5B%5D%3B%22%20vertex%3D%221%22%20connectable%3D%220%22%20parent%3D%221%22%3E%3CmxGeometry%20x%3D%22130.05882352941194%22%20y%3D%221310%22%20as%3D%22geometry%22%2F%3E%3C%2FmxCell%3E%3C%2Froot%3E%3C%2FmxGraphModel%3E&lt;/span&gt;" style="edgeLabel;html=1;align=center;verticalAlign=middle;resizable=0;points=[];" vertex="1" connectable="0" parent="uwge-FKVhBbenf3adf19-83">
          <mxGeometry x="-0.4241" y="-2" relative="1" as="geometry">
            <mxPoint x="1" as="offset" />
          </mxGeometry>
        </mxCell>
        <mxCell id="uwge-FKVhBbenf3adf19-85" value="&lt;span style=&quot;font-weight: 700;&quot;&gt;&lt;font style=&quot;font-size: 9px; color: rgb(102, 102, 255);&quot;&gt;&amp;lt;&amp;lt; extends &amp;gt;&amp;gt;&amp;nbsp;&lt;/font&gt;&lt;/span&gt;&lt;div&gt;&lt;span style=&quot;font-weight: 700;&quot;&gt;&lt;font style=&quot;font-size: 9px; color: rgb(102, 102, 255);&quot;&gt;(αν δεν υπάρχει τρόπος πληρωμής)&lt;/font&gt;&lt;/span&gt;&lt;/div&gt;" style="edgeLabel;html=1;align=center;verticalAlign=middle;resizable=0;points=[];" vertex="1" connectable="0" parent="uwge-FKVhBbenf3adf19-83">
          <mxGeometry x="-0.4505" y="1" relative="1" as="geometry">
            <mxPoint y="7" as="offset" />
          </mxGeometry>
        </mxCell>
        <mxCell id="uwge-FKVhBbenf3adf19-88" value="&lt;span style=&quot;forced-color-adjust: none; color: rgb(0, 0, 0); font-family: Helvetica; font-size: 11px; font-style: normal; font-variant-ligatures: normal; font-variant-caps: normal; letter-spacing: normal; orphans: 2; text-align: center; text-indent: 0px; text-transform: none; widows: 2; word-spacing: 0px; -webkit-text-stroke-width: 0px; white-space: nowrap; text-decoration-thickness: initial; text-decoration-style: initial; text-decoration-color: initial; font-weight: 700;&quot;&gt;&lt;font style=&quot;forced-color-adjust: none; font-size: 9px; color: rgb(102, 102, 255);&quot;&gt;&amp;lt;&amp;lt; extends &amp;gt;&amp;gt;&amp;nbsp;&lt;/font&gt;&lt;/span&gt;&lt;div style=&quot;forced-color-adjust: none; color: rgb(0, 0, 0); font-family: Helvetica; font-size: 11px; font-style: normal; font-variant-ligatures: normal; font-variant-caps: normal; letter-spacing: normal; orphans: 2; text-align: center; text-indent: 0px; text-transform: none; widows: 2; word-spacing: 0px; -webkit-text-stroke-width: 0px; white-space: nowrap; text-decoration-thickness: initial; text-decoration-style: initial; text-decoration-color: initial; font-weight: 700;&quot;&gt;&lt;font style=&quot;forced-color-adjust: none; font-size: 9px; color: rgb(102, 102, 255);&quot;&gt;(αν ο χρήστης επιλέξει&amp;nbsp;&lt;/font&gt;&lt;/div&gt;&lt;div style=&quot;forced-color-adjust: none; color: rgb(0, 0, 0); font-family: Helvetica; font-size: 11px; font-style: normal; font-variant-ligatures: normal; font-variant-caps: normal; letter-spacing: normal; orphans: 2; text-align: center; text-indent: 0px; text-transform: none; widows: 2; word-spacing: 0px; -webkit-text-stroke-width: 0px; white-space: nowrap; text-decoration-thickness: initial; text-decoration-style: initial; text-decoration-color: initial; font-weight: 700;&quot;&gt;&lt;font style=&quot;forced-color-adjust: none; font-size: 9px; color: rgb(102, 102, 255);&quot;&gt;να δηλώσει ενδιαφέρον)&lt;/font&gt;&lt;/div&gt;" style="edgeStyle=orthogonalEdgeStyle;rounded=0;orthogonalLoop=1;jettySize=auto;html=1;entryX=0.467;entryY=0.998;entryDx=0;entryDy=0;entryPerimeter=0;strokeWidth=2;strokeColor=#6666FF;" edge="1" parent="1" source="uwge-FKVhBbenf3adf19-9" target="uwge-FKVhBbenf3adf19-6">
          <mxGeometry x="-0.3335" relative="1" as="geometry">
            <Array as="points">
              <mxPoint x="16" y="1320" />
              <mxPoint x="16" y="1320" />
            </Array>
            <mxPoint as="offset" />
          </mxGeometry>
        </mxCell>
      </root>
    </mxGraphModel>
  </diagram>
</mxfile>
